<?xml version="1.0" encoding="utf-8" standalone="no"?>
<!DOCTYPE svg PUBLIC "-//W3C//DTD SVG 1.1//EN"
  "http://www.w3.org/Graphics/SVG/1.1/DTD/svg11.dtd">
<!-- Created with matplotlib (https://matplotlib.org/) -->
<svg height="288pt" version="1.1" viewBox="0 0 432 288" width="432pt" xmlns="http://www.w3.org/2000/svg" xmlns:xlink="http://www.w3.org/1999/xlink">
 <defs>
  <style type="text/css">
*{stroke-linecap:butt;stroke-linejoin:round;}
  </style>
 </defs>
 <g id="figure_1">
  <g id="patch_1">
   <path d="M 0 288 
L 432 288 
L 432 0 
L 0 0 
z
" style="fill:#ffffff;"/>
  </g>
  <g id="axes_1">
   <g id="patch_2">
    <path d="M 54 252 
L 388.8 252 
L 388.8 34.56 
L 54 34.56 
z
" style="fill:#ffffff;"/>
   </g>
   <g id="matplotlib.axis_1">
    <g id="xtick_1">
     <g id="line2d_1">
      <defs>
       <path d="M 0 0 
L 0 3.5 
" id="m4faa14e9ff" style="stroke:#000000;stroke-width:0.8;"/>
      </defs>
      <g>
       <use style="stroke:#000000;stroke-width:0.8;" x="69.218182" xlink:href="#m4faa14e9ff" y="252"/>
      </g>
     </g>
     <g id="text_1">
      <!-- 0.0 -->
      <defs>
       <path d="M 27.78125 71.921875 
Q 51.125 71.921875 51.125 35.296875 
Q 51.125 16.796875 45.09375 7.78125 
Q 39.0625 -1.21875 27.78125 -1.21875 
Q 4.5 -1.21875 4.5 35.296875 
Q 4.5 53.8125 10.515625 62.859375 
Q 16.546875 71.921875 27.78125 71.921875 
z
M 27.78125 6 
Q 34.859375 6 38.46875 12.859375 
Q 42.09375 19.734375 42.09375 35.296875 
Q 42.09375 46.140625 40.5 52.359375 
Q 38.921875 58.59375 35.71875 61.640625 
Q 32.515625 64.703125 27.6875 64.703125 
Q 20.609375 64.703125 17.046875 57.71875 
Q 13.484375 50.734375 13.484375 35.296875 
Q 13.484375 24.609375 15.09375 18.359375 
Q 16.703125 12.109375 19.875 9.046875 
Q 23.046875 6 27.78125 6 
z
" id="ArialUnicodeMS-48"/>
       <path d="M 18.890625 0 
L 8.890625 0 
L 8.890625 10.015625 
L 18.890625 10.015625 
z
" id="ArialUnicodeMS-46"/>
      </defs>
      <g transform="translate(62.268182 266.157812)scale(0.1 -0.1)">
       <use xlink:href="#ArialUnicodeMS-48"/>
       <use x="55.615234" xlink:href="#ArialUnicodeMS-46"/>
       <use x="83.398438" xlink:href="#ArialUnicodeMS-48"/>
      </g>
     </g>
    </g>
    <g id="xtick_2">
     <g id="line2d_2">
      <g>
       <use style="stroke:#000000;stroke-width:0.8;" x="107.263636" xlink:href="#m4faa14e9ff" y="252"/>
      </g>
     </g>
     <g id="text_2">
      <!-- 0.5 -->
      <defs>
       <path d="M 15.828125 43.015625 
Q 22.359375 47.515625 29.390625 47.515625 
Q 38.328125 47.515625 44.96875 41.1875 
Q 51.609375 34.859375 51.609375 24.3125 
Q 51.609375 13.671875 44.875 6.21875 
Q 38.140625 -1.21875 27.203125 -1.21875 
Q 18.265625 -1.21875 11.71875 3.828125 
Q 5.171875 8.890625 4.203125 18.796875 
L 13.375 19.484375 
Q 14.5 12.703125 18.15625 9.34375 
Q 21.828125 6 27.203125 6 
Q 33.890625 6 38.03125 11.046875 
Q 42.1875 16.109375 42.1875 23.484375 
Q 42.1875 31 37.9375 35.34375 
Q 33.6875 39.703125 27 39.703125 
Q 18.5625 39.703125 14.015625 32.8125 
L 5.71875 33.796875 
L 12.703125 70.609375 
L 48.1875 70.609375 
L 48.1875 62.109375 
L 19.671875 62.109375 
z
" id="ArialUnicodeMS-53"/>
      </defs>
      <g transform="translate(100.313636 266.157812)scale(0.1 -0.1)">
       <use xlink:href="#ArialUnicodeMS-48"/>
       <use x="55.615234" xlink:href="#ArialUnicodeMS-46"/>
       <use x="83.398438" xlink:href="#ArialUnicodeMS-53"/>
      </g>
     </g>
    </g>
    <g id="xtick_3">
     <g id="line2d_3">
      <g>
       <use style="stroke:#000000;stroke-width:0.8;" x="145.309091" xlink:href="#m4faa14e9ff" y="252"/>
      </g>
     </g>
     <g id="text_3">
      <!-- 1.0 -->
      <defs>
       <path d="M 37.5 0 
L 28.71875 0 
L 28.71875 56 
Q 22.125 49.75 11.078125 45.40625 
L 11.078125 53.90625 
Q 26.265625 61.1875 31.78125 71.921875 
L 37.5 71.921875 
z
" id="ArialUnicodeMS-49"/>
      </defs>
      <g transform="translate(138.359091 266.157812)scale(0.1 -0.1)">
       <use xlink:href="#ArialUnicodeMS-49"/>
       <use x="55.615234" xlink:href="#ArialUnicodeMS-46"/>
       <use x="83.398438" xlink:href="#ArialUnicodeMS-48"/>
      </g>
     </g>
    </g>
    <g id="xtick_4">
     <g id="line2d_4">
      <g>
       <use style="stroke:#000000;stroke-width:0.8;" x="183.354545" xlink:href="#m4faa14e9ff" y="252"/>
      </g>
     </g>
     <g id="text_4">
      <!-- 1.5 -->
      <g transform="translate(176.404545 266.157812)scale(0.1 -0.1)">
       <use xlink:href="#ArialUnicodeMS-49"/>
       <use x="55.615234" xlink:href="#ArialUnicodeMS-46"/>
       <use x="83.398438" xlink:href="#ArialUnicodeMS-53"/>
      </g>
     </g>
    </g>
    <g id="xtick_5">
     <g id="line2d_5">
      <g>
       <use style="stroke:#000000;stroke-width:0.8;" x="221.4" xlink:href="#m4faa14e9ff" y="252"/>
      </g>
     </g>
     <g id="text_5">
      <!-- 2.0 -->
      <defs>
       <path d="M 50.484375 0 
L 3.078125 0 
Q 3.078125 6.0625 7.296875 12.25 
Q 11.53125 18.453125 23.09375 27.78125 
Q 30.171875 33.453125 35.734375 39.671875 
Q 41.3125 45.90625 41.3125 52.203125 
Q 41.3125 57.625 37.46875 61.15625 
Q 33.640625 64.703125 27.78125 64.703125 
Q 21.875 64.703125 17.875 61.0625 
Q 13.875 57.421875 13.8125 50.203125 
L 4.78125 51.21875 
Q 5.609375 61.28125 11.9375 66.59375 
Q 18.265625 71.921875 27.984375 71.921875 
Q 38.53125 71.921875 44.40625 66.078125 
Q 50.296875 60.25 50.296875 52 
Q 50.296875 45.125 45.328125 38.0625 
Q 40.375 31 25.59375 19.1875 
Q 17.828125 12.984375 15.28125 8.5 
L 50.484375 8.5 
z
" id="ArialUnicodeMS-50"/>
      </defs>
      <g transform="translate(214.45 266.157812)scale(0.1 -0.1)">
       <use xlink:href="#ArialUnicodeMS-50"/>
       <use x="55.615234" xlink:href="#ArialUnicodeMS-46"/>
       <use x="83.398438" xlink:href="#ArialUnicodeMS-48"/>
      </g>
     </g>
    </g>
    <g id="xtick_6">
     <g id="line2d_6">
      <g>
       <use style="stroke:#000000;stroke-width:0.8;" x="259.445455" xlink:href="#m4faa14e9ff" y="252"/>
      </g>
     </g>
     <g id="text_6">
      <!-- 2.5 -->
      <g transform="translate(252.495455 266.157812)scale(0.1 -0.1)">
       <use xlink:href="#ArialUnicodeMS-50"/>
       <use x="55.615234" xlink:href="#ArialUnicodeMS-46"/>
       <use x="83.398438" xlink:href="#ArialUnicodeMS-53"/>
      </g>
     </g>
    </g>
    <g id="xtick_7">
     <g id="line2d_7">
      <g>
       <use style="stroke:#000000;stroke-width:0.8;" x="297.490909" xlink:href="#m4faa14e9ff" y="252"/>
      </g>
     </g>
     <g id="text_7">
      <!-- 3.0 -->
      <defs>
       <path d="M 37.890625 38.71875 
Q 44.53125 37.453125 47.921875 32.296875 
Q 51.3125 27.15625 51.3125 21.09375 
Q 51.3125 11.328125 44.203125 5.046875 
Q 37.109375 -1.21875 27.203125 -1.21875 
Q 17.71875 -1.21875 11.5625 4.296875 
Q 5.421875 9.8125 4.390625 18.890625 
L 13.1875 20.125 
Q 14.5 13.03125 17.984375 9.515625 
Q 21.484375 6 27.203125 6 
Q 33.34375 6 37.609375 10.328125 
Q 41.890625 14.65625 41.890625 20.90625 
Q 41.890625 26.90625 38 30.859375 
Q 34.125 34.8125 27.875 34.8125 
Q 25.34375 34.8125 21.6875 33.890625 
L 22.703125 41.609375 
Q 26.21875 41.609375 28.265625 41.9375 
Q 30.328125 42.28125 32.859375 43.59375 
Q 35.40625 44.921875 37.0625 47.390625 
Q 38.71875 49.859375 38.71875 53.515625 
Q 38.71875 58.84375 35.171875 61.765625 
Q 31.640625 64.703125 27 64.703125 
Q 21.6875 64.703125 18.328125 61.328125 
Q 14.984375 57.953125 14.109375 51.703125 
L 5.328125 53.328125 
Q 7.03125 62.640625 12.859375 67.28125 
Q 18.703125 71.921875 26.8125 71.921875 
Q 35.75 71.921875 41.71875 66.53125 
Q 47.703125 61.140625 47.703125 53.328125 
Q 47.703125 43.3125 37.890625 38.921875 
z
" id="ArialUnicodeMS-51"/>
      </defs>
      <g transform="translate(290.540909 266.157812)scale(0.1 -0.1)">
       <use xlink:href="#ArialUnicodeMS-51"/>
       <use x="55.615234" xlink:href="#ArialUnicodeMS-46"/>
       <use x="83.398438" xlink:href="#ArialUnicodeMS-48"/>
      </g>
     </g>
    </g>
    <g id="xtick_8">
     <g id="line2d_8">
      <g>
       <use style="stroke:#000000;stroke-width:0.8;" x="335.536364" xlink:href="#m4faa14e9ff" y="252"/>
      </g>
     </g>
     <g id="text_8">
      <!-- 3.5 -->
      <g transform="translate(328.586364 266.157812)scale(0.1 -0.1)">
       <use xlink:href="#ArialUnicodeMS-51"/>
       <use x="55.615234" xlink:href="#ArialUnicodeMS-46"/>
       <use x="83.398438" xlink:href="#ArialUnicodeMS-53"/>
      </g>
     </g>
    </g>
    <g id="xtick_9">
     <g id="line2d_9">
      <g>
       <use style="stroke:#000000;stroke-width:0.8;" x="373.581818" xlink:href="#m4faa14e9ff" y="252"/>
      </g>
     </g>
     <g id="text_9">
      <!-- 4.0 -->
      <defs>
       <path d="M 50.984375 17.09375 
L 41.3125 17.09375 
L 41.3125 0 
L 32.515625 0 
L 32.515625 17.09375 
L 1.515625 17.09375 
L 1.515625 25.203125 
L 34.078125 71.578125 
L 41.3125 71.578125 
L 41.3125 25.203125 
L 50.984375 25.203125 
z
M 32.515625 25.203125 
L 32.515625 57.515625 
L 32.328125 57.515625 
L 10.109375 25.203125 
z
" id="ArialUnicodeMS-52"/>
      </defs>
      <g transform="translate(366.631818 266.157812)scale(0.1 -0.1)">
       <use xlink:href="#ArialUnicodeMS-52"/>
       <use x="55.615234" xlink:href="#ArialUnicodeMS-46"/>
       <use x="83.398438" xlink:href="#ArialUnicodeMS-48"/>
      </g>
     </g>
    </g>
    <g id="text_10">
     <!-- 0에서 4까지 1씩 증가하는 x축 값 -->
     <defs>
      <path d="M 83.109375 -6.78125 
L 83.109375 84.28125 
L 90.71875 84.28125 
L 90.71875 -6.78125 
z
M 66.5 1.21875 
L 66.5 38.71875 
L 52.59375 38.71875 
L 52.59375 46.390625 
L 66.5 46.390625 
L 66.5 82.625 
L 74.21875 82.625 
L 74.21875 1.21875 
z
M 48.78125 41.609375 
Q 48.78125 29 42.796875 20.09375 
Q 36.8125 11.1875 28.71875 11.1875 
Q 20.265625 11.1875 14.375 20 
Q 8.5 28.8125 8.5 41.609375 
Q 8.5 55.078125 14.234375 63.59375 
Q 19.96875 72.125 28.609375 72.125 
Q 36.765625 72.125 42.765625 63.1875 
Q 48.78125 54.25 48.78125 41.609375 
z
M 41.015625 41.609375 
Q 41.015625 50.984375 37.40625 57.34375 
Q 33.796875 63.71875 28.609375 63.71875 
Q 23.484375 63.71875 19.890625 57.34375 
Q 16.3125 50.984375 16.3125 41.609375 
Q 16.3125 32.234375 19.890625 25.859375 
Q 23.484375 19.484375 28.609375 19.484375 
Q 33.796875 19.484375 37.40625 25.859375 
Q 41.015625 32.234375 41.015625 41.609375 
z
" id="ArialUnicodeMS-50640"/>
      <path d="M 83.015625 -6.984375 
L 83.015625 40.71875 
L 53.078125 40.71875 
L 53.078125 48.484375 
L 83.015625 48.484375 
L 83.015625 84.078125 
L 90.71875 84.078125 
L 90.71875 -6.984375 
z
M 56.390625 8.203125 
Q 43.265625 19.578125 35.109375 39.796875 
Q 27.046875 18.796875 12.5 5.171875 
Q 8.796875 10.9375 5.90625 12.40625 
Q 17.140625 19.96875 24.1875 35.078125 
Q 31.25 50.203125 31.25 62.359375 
L 31 70.40625 
Q 31 73.640625 30.71875 75.59375 
L 41.40625 74.421875 
Q 38.375 68.609375 38.375 52.78125 
Q 38.375 50.734375 41.75 43.5 
Q 45.125 36.28125 48.296875 31.421875 
Q 51.46875 26.5625 55.171875 22.5 
Q 58.890625 18.453125 62.890625 15.484375 
Q 58.40625 12.5 56.390625 8.203125 
z
" id="ArialUnicodeMS-49436"/>
      <path id="ArialUnicodeMS-32"/>
      <path d="M 93.609375 34.71875 
L 77.6875 34.71875 
L 77.6875 -6.890625 
L 70.125 -6.890625 
L 70.125 84.1875 
L 77.6875 84.1875 
L 77.6875 42.390625 
L 93.609375 42.390625 
z
M 4.59375 14.890625 
Q 22.953125 32.953125 26.125 66.3125 
L 10.40625 66.3125 
L 10.40625 74.421875 
L 35.203125 74.421875 
Q 33.40625 49.65625 27.390625 35.21875 
Q 21.390625 20.796875 11.28125 9.078125 
Q 8.84375 12.796875 4.59375 14.890625 
z
M 30.8125 6.59375 
Q 52.390625 25.390625 55.078125 66.21875 
L 39.109375 66.21875 
L 39.109375 74.3125 
L 63.484375 74.3125 
Q 62.75 27.78125 37.40625 0.09375 
Q 35.359375 3.421875 30.8125 6.59375 
z
" id="ArialUnicodeMS-44620"/>
      <path d="M 90.71875 -6.890625 
L 83.109375 -6.890625 
L 83.109375 84.1875 
L 90.71875 84.1875 
z
M 66.703125 16.40625 
Q 61.46875 12.59375 59.421875 8.59375 
Q 46.140625 20.75 37.59375 35.40625 
Q 31 19.390625 18.015625 7.90625 
Q 16.40625 10.9375 11.625 14.796875 
Q 22.3125 22.859375 28.09375 35.890625 
Q 33.890625 48.921875 33.890625 62.015625 
L 13.625 62.015625 
L 13.625 70.015625 
L 63.921875 70.015625 
L 63.921875 62.015625 
L 43.109375 62.015625 
Q 42.4375 51.03125 41.21875 47.015625 
Q 45.40625 37.984375 52.75 29.125 
Q 60.109375 20.265625 66.703125 16.40625 
z
" id="ArialUnicodeMS-51648"/>
      <path d="M 83.296875 31.109375 
L 83.296875 84.1875 
L 90.71875 84.1875 
L 90.71875 31.109375 
z
M 60.796875 78.8125 
L 59.8125 65.1875 
Q 59.8125 62.109375 64.296875 53.25 
Q 68.796875 44.390625 75.484375 38.484375 
Q 71.578125 36.578125 68.703125 33.109375 
Q 60.9375 40.96875 56.296875 52.875 
Q 50.78125 39.109375 45.21875 33.296875 
Q 40.578125 36.71875 38.09375 37.40625 
Q 46.96875 47.46875 49.609375 56.6875 
Q 52.25 65.921875 52.484375 79.109375 
Q 57.859375 78.8125 60.796875 78.8125 
z
M 29.203125 77.59375 
L 28.515625 63.375 
Q 28.515625 61.765625 32.515625 55.25 
Q 36.53125 48.734375 41.21875 44.671875 
Q 37.640625 42.28125 34.625 38.8125 
Q 28.171875 45.90625 24.90625 52.203125 
Q 20.65625 41.84375 14.3125 33.890625 
Q 10.75 36.765625 6.78125 37.890625 
Q 12.25 43.796875 15.328125 49.671875 
Q 18.40625 55.5625 19.796875 61.765625 
Q 21.1875 67.96875 21.1875 78.421875 
z
M 83.296875 -6.109375 
L 83.296875 18.609375 
L 25.484375 18.609375 
L 25.484375 26.421875 
L 90.71875 26.421875 
L 90.71875 -6.109375 
z
" id="ArialUnicodeMS-50473"/>
      <path d="M 81.203125 43.890625 
Q 62.5 48.140625 48.6875 61.1875 
Q 37.546875 48.578125 19.390625 43.3125 
Q 16.84375 48.734375 14.3125 51.21875 
Q 23.53125 52.25 33.078125 58.46875 
Q 42.625 64.703125 45.609375 72.21875 
L 16.5 72.21875 
L 16.5 79.78125 
L 83.796875 79.78125 
L 83.796875 72.21875 
L 54.984375 72.21875 
L 53.328125 68.40625 
Q 58.015625 62.890625 67.53125 58.109375 
Q 77.046875 53.328125 85.984375 51.90625 
Q 85.296875 51.078125 81.203125 43.890625 
z
M 92.09375 31.6875 
L 7.90625 31.6875 
L 7.90625 39.40625 
L 92.1875 39.40625 
z
M 83.890625 10.984375 
Q 83.890625 2.546875 74.515625 -2.109375 
Q 65.140625 -6.78125 50.203125 -6.78125 
Q 34.71875 -6.78125 25.40625 -2.09375 
Q 16.109375 2.59375 16.109375 11.078125 
Q 16.109375 19.28125 26.125 24.234375 
Q 36.140625 29.203125 50.203125 29.203125 
Q 64.9375 29.203125 74.40625 24.390625 
Q 83.890625 19.578125 83.890625 10.984375 
z
M 51.171875 21.296875 
Q 39.796875 21.296875 32.109375 18.5625 
Q 24.421875 15.828125 24.421875 11.078125 
Q 24.421875 6.9375 32.5625 3.859375 
Q 40.71875 0.78125 50.203125 0.78125 
Q 60.640625 0.78125 68.109375 3.8125 
Q 75.59375 6.84375 75.59375 11.078125 
Q 75.59375 15.28125 68.453125 18.28125 
Q 61.328125 21.296875 51.171875 21.296875 
z
" id="ArialUnicodeMS-51613"/>
      <path d="M 93.609375 34.71875 
L 77.6875 34.71875 
L 77.6875 -6.890625 
L 70.125 -6.890625 
L 70.125 84.1875 
L 77.6875 84.1875 
L 77.6875 42.390625 
L 93.609375 42.390625 
z
M 15.09375 5.609375 
Q 12.359375 9.96875 9.8125 12.015625 
Q 24.703125 18.890625 33.953125 33.078125 
Q 43.21875 47.265625 45.125 63.09375 
L 11.8125 63.09375 
L 11.8125 71.09375 
L 53.90625 71.09375 
Q 52.640625 49.65625 42.375 32.265625 
Q 32.125 14.890625 15.09375 5.609375 
z
" id="ArialUnicodeMS-44032"/>
      <path d="M 93.609375 34.71875 
L 77.6875 34.71875 
L 77.6875 -6.890625 
L 70.125 -6.890625 
L 70.125 84.1875 
L 77.6875 84.1875 
L 77.6875 42.390625 
L 93.609375 42.390625 
z
M 51.421875 66.21875 
L 23.578125 66.21875 
L 23.578125 74.421875 
L 51.421875 74.421875 
z
M 64.703125 50.390625 
L 9.421875 50.390625 
L 9.421875 58.6875 
L 64.703125 58.6875 
z
M 58.109375 25.09375 
Q 58.109375 16.84375 52.390625 11.28125 
Q 46.6875 5.71875 37.40625 5.71875 
Q 27.875 5.71875 22.3125 11.1875 
Q 16.75 16.65625 16.75 24.703125 
Q 16.75 32.90625 22.3125 38.59375 
Q 27.875 44.28125 37.0625 44.28125 
Q 46.78125 44.28125 52.4375 38.6875 
Q 58.109375 33.109375 58.109375 25.09375 
z
M 50.484375 25.09375 
Q 50.484375 29.890625 46.71875 33.34375 
Q 42.96875 36.8125 37.59375 36.8125 
Q 32.28125 36.8125 28.484375 33.375 
Q 24.703125 29.9375 24.703125 25.203125 
Q 24.703125 20.40625 28.46875 16.9375 
Q 32.234375 13.484375 37.59375 13.484375 
Q 42.921875 13.484375 46.703125 16.921875 
Q 50.484375 20.359375 50.484375 25.09375 
z
" id="ArialUnicodeMS-54616"/>
      <path d="M 17.484375 81.203125 
L 25.296875 81.203125 
L 25.296875 58.59375 
L 81.984375 58.59375 
L 81.984375 50.6875 
L 17.484375 50.6875 
z
M 92.09375 31.890625 
L 7.90625 31.890625 
L 7.90625 39.5 
L 92.09375 39.5 
z
M 82.171875 -4.59375 
L 18.796875 -4.59375 
L 18.796875 25.875 
L 26.609375 25.875 
L 26.609375 3.328125 
L 82.171875 3.328125 
z
" id="ArialUnicodeMS-45716"/>
      <path d="M 49.3125 0 
L 38.484375 0 
L 25 20.515625 
L 11.375 0 
L 0.6875 0 
L 19.671875 27 
L 2.203125 51.8125 
L 13.09375 51.8125 
Q 23.734375 35.75 24.703125 33.890625 
L 37.40625 51.8125 
L 47.90625 51.8125 
L 29.984375 27.484375 
z
" id="ArialUnicodeMS-120"/>
      <path d="M 66.3125 75.484375 
L 34.28125 75.484375 
L 34.28125 82.171875 
L 66.3125 82.171875 
z
M 86.078125 53.609375 
Q 82.46875 50.984375 81 46.1875 
Q 63.328125 50.4375 50.09375 62.40625 
Q 37.84375 50.875 16.609375 46.296875 
Q 15.1875 50.25 12.40625 53.609375 
Q 31 56.453125 41.609375 65.28125 
L 15.28125 65.28125 
L 15.28125 71.78125 
L 85.203125 71.78125 
L 85.203125 65.28125 
L 58.6875 65.28125 
Q 67.4375 57.5625 86.078125 53.609375 
z
M 92.09375 36.71875 
L 53.8125 36.71875 
L 53.8125 30.171875 
L 46.1875 30.171875 
L 46.1875 36.71875 
L 7.90625 36.71875 
L 7.90625 44.390625 
L 92.09375 44.390625 
z
M 73.78125 -6.109375 
L 73.78125 18.609375 
L 17.484375 18.609375 
L 17.484375 26.421875 
L 81.203125 26.421875 
L 81.203125 -6.109375 
z
" id="ArialUnicodeMS-52629"/>
      <path d="M 93.609375 53.71875 
L 77.6875 53.71875 
L 77.6875 31.109375 
L 70.125 31.109375 
L 70.125 83.6875 
L 77.6875 83.6875 
L 77.6875 61.375 
L 93.609375 61.375 
z
M 13.921875 31.296875 
L 8.796875 37.703125 
Q 20.75 41.84375 30.875 51.34375 
Q 41.015625 60.84375 44.09375 70.3125 
L 11.921875 70.3125 
L 11.921875 78.078125 
L 55.078125 78.078125 
Q 52.15625 62.796875 41.09375 50.25 
Q 30.03125 37.703125 13.921875 31.296875 
z
M 83.796875 -6.6875 
Q 74.421875 1.703125 68.796875 9.90625 
Q 63.671875 -0.640625 56.109375 -6.984375 
Q 52.984375 -3.375 50.390625 -2.296875 
Q 62.9375 8.9375 67.484375 30.078125 
L 75.6875 27.78125 
Q 74.421875 25.59375 73.359375 22.140625 
Q 72.3125 18.703125 71.484375 16.796875 
Q 81 5.8125 90.1875 -0.390625 
Q 86.578125 -2.78125 83.796875 -6.6875 
z
M 48.78125 -6.296875 
L 41.109375 -6.296875 
L 41.109375 -3.515625 
L 22.609375 -3.515625 
L 22.609375 -6.296875 
L 14.984375 -6.296875 
L 14.984375 28.515625 
L 22.609375 28.515625 
L 22.609375 18.40625 
L 41.109375 18.40625 
L 41.109375 28.515625 
L 48.78125 28.515625 
z
M 41.109375 11.1875 
L 22.609375 11.1875 
L 22.609375 3.71875 
L 41.109375 3.71875 
z
" id="ArialUnicodeMS-44050"/>
     </defs>
     <g transform="translate(148.613281 279.307813)scale(0.1 -0.1)">
      <use xlink:href="#ArialUnicodeMS-48"/>
      <use x="55.615234" xlink:href="#ArialUnicodeMS-50640"/>
      <use x="155.615234" xlink:href="#ArialUnicodeMS-49436"/>
      <use x="255.615234" xlink:href="#ArialUnicodeMS-32"/>
      <use x="283.398438" xlink:href="#ArialUnicodeMS-52"/>
      <use x="339.013672" xlink:href="#ArialUnicodeMS-44620"/>
      <use x="439.013672" xlink:href="#ArialUnicodeMS-51648"/>
      <use x="539.013672" xlink:href="#ArialUnicodeMS-32"/>
      <use x="566.796875" xlink:href="#ArialUnicodeMS-49"/>
      <use x="622.412109" xlink:href="#ArialUnicodeMS-50473"/>
      <use x="722.412109" xlink:href="#ArialUnicodeMS-32"/>
      <use x="750.195312" xlink:href="#ArialUnicodeMS-51613"/>
      <use x="850.195312" xlink:href="#ArialUnicodeMS-44032"/>
      <use x="950.195312" xlink:href="#ArialUnicodeMS-54616"/>
      <use x="1050.195312" xlink:href="#ArialUnicodeMS-45716"/>
      <use x="1150.195312" xlink:href="#ArialUnicodeMS-32"/>
      <use x="1177.978516" xlink:href="#ArialUnicodeMS-120"/>
      <use x="1227.978516" xlink:href="#ArialUnicodeMS-52629"/>
      <use x="1327.978516" xlink:href="#ArialUnicodeMS-32"/>
      <use x="1355.761719" xlink:href="#ArialUnicodeMS-44050"/>
     </g>
    </g>
   </g>
   <g id="matplotlib.axis_2">
    <g id="ytick_1">
     <g id="line2d_10">
      <defs>
       <path d="M 0 0 
L -3.5 0 
" id="m722a7d0f55" style="stroke:#000000;stroke-width:0.8;"/>
      </defs>
      <g>
       <use style="stroke:#000000;stroke-width:0.8;" x="54" xlink:href="#m722a7d0f55" y="242.116364"/>
      </g>
     </g>
     <g id="text_11">
      <!-- 0 -->
      <g transform="translate(41.439062 245.69527)scale(0.1 -0.1)">
       <use xlink:href="#ArialUnicodeMS-48"/>
      </g>
     </g>
    </g>
    <g id="ytick_2">
     <g id="line2d_11">
      <g>
       <use style="stroke:#000000;stroke-width:0.8;" x="54" xlink:href="#m722a7d0f55" y="213.877403"/>
      </g>
     </g>
     <g id="text_12">
      <!-- 1 -->
      <g transform="translate(41.439062 217.456309)scale(0.1 -0.1)">
       <use xlink:href="#ArialUnicodeMS-49"/>
      </g>
     </g>
    </g>
    <g id="ytick_3">
     <g id="line2d_12">
      <g>
       <use style="stroke:#000000;stroke-width:0.8;" x="54" xlink:href="#m722a7d0f55" y="185.638442"/>
      </g>
     </g>
     <g id="text_13">
      <!-- 2 -->
      <g transform="translate(41.439062 189.217348)scale(0.1 -0.1)">
       <use xlink:href="#ArialUnicodeMS-50"/>
      </g>
     </g>
    </g>
    <g id="ytick_4">
     <g id="line2d_13">
      <g>
       <use style="stroke:#000000;stroke-width:0.8;" x="54" xlink:href="#m722a7d0f55" y="157.399481"/>
      </g>
     </g>
     <g id="text_14">
      <!-- 3 -->
      <g transform="translate(41.439062 160.978387)scale(0.1 -0.1)">
       <use xlink:href="#ArialUnicodeMS-51"/>
      </g>
     </g>
    </g>
    <g id="ytick_5">
     <g id="line2d_14">
      <g>
       <use style="stroke:#000000;stroke-width:0.8;" x="54" xlink:href="#m722a7d0f55" y="129.160519"/>
      </g>
     </g>
     <g id="text_15">
      <!-- 4 -->
      <g transform="translate(41.439062 132.739426)scale(0.1 -0.1)">
       <use xlink:href="#ArialUnicodeMS-52"/>
      </g>
     </g>
    </g>
    <g id="ytick_6">
     <g id="line2d_15">
      <g>
       <use style="stroke:#000000;stroke-width:0.8;" x="54" xlink:href="#m722a7d0f55" y="100.921558"/>
      </g>
     </g>
     <g id="text_16">
      <!-- 5 -->
      <g transform="translate(41.439062 104.500465)scale(0.1 -0.1)">
       <use xlink:href="#ArialUnicodeMS-53"/>
      </g>
     </g>
    </g>
    <g id="ytick_7">
     <g id="line2d_16">
      <g>
       <use style="stroke:#000000;stroke-width:0.8;" x="54" xlink:href="#m722a7d0f55" y="72.682597"/>
      </g>
     </g>
     <g id="text_17">
      <!-- 6 -->
      <defs>
       <path d="M 13.09375 36.921875 
Q 19.140625 46.390625 30.328125 46.390625 
Q 39.109375 46.390625 45.265625 39.890625 
Q 51.421875 33.40625 51.421875 23.296875 
Q 51.421875 13.09375 45.28125 5.9375 
Q 39.15625 -1.21875 29 -1.21875 
Q 18.703125 -1.21875 11.453125 6.390625 
Q 4.203125 14.015625 4.203125 33.5 
Q 4.203125 52.640625 10.765625 62.28125 
Q 17.328125 71.921875 29.78125 71.921875 
Q 37.84375 71.921875 43.40625 67.421875 
Q 48.96875 62.9375 50.203125 54.109375 
L 41.40625 53.328125 
Q 39.015625 64.703125 29.296875 64.703125 
Q 22.5625 64.703125 17.71875 58 
Q 12.890625 51.3125 12.890625 36.921875 
z
M 28.8125 6 
Q 34.859375 6 38.625 10.875 
Q 42.390625 15.765625 42.390625 22.703125 
Q 42.390625 29.640625 38.625 34.171875 
Q 34.859375 38.71875 28.515625 38.71875 
Q 22.703125 38.71875 18.5 34.4375 
Q 14.3125 30.171875 14.3125 23.1875 
Q 14.3125 16.0625 18.4375 11.03125 
Q 22.5625 6 28.8125 6 
z
" id="ArialUnicodeMS-54"/>
      </defs>
      <g transform="translate(41.439062 76.261504)scale(0.1 -0.1)">
       <use xlink:href="#ArialUnicodeMS-54"/>
      </g>
     </g>
    </g>
    <g id="ytick_8">
     <g id="line2d_17">
      <g>
       <use style="stroke:#000000;stroke-width:0.8;" x="54" xlink:href="#m722a7d0f55" y="44.443636"/>
      </g>
     </g>
     <g id="text_18">
      <!-- 7 -->
      <defs>
       <path d="M 51.125 63.8125 
Q 40.578125 52.25 32.859375 35.203125 
Q 25.140625 18.171875 23.78125 0 
L 14.796875 0 
Q 15.140625 14.59375 22 32.046875 
Q 28.859375 49.515625 39.796875 62.109375 
L 4.78125 62.109375 
L 4.78125 70.609375 
L 51.125 70.609375 
z
" id="ArialUnicodeMS-55"/>
      </defs>
      <g transform="translate(41.439062 48.022543)scale(0.1 -0.1)">
       <use xlink:href="#ArialUnicodeMS-55"/>
      </g>
     </g>
    </g>
    <g id="text_19">
     <!-- y축 값 -->
     <defs>
      <path d="M 49.21875 51.8125 
L 29.390625 -0.875 
Q 29.34375 -0.984375 29.296875 -1.21875 
Q 26.46875 -10.015625 22.671875 -15.5 
Q 18.890625 -21 11.921875 -21 
Q 9.578125 -21 6.203125 -20.015625 
L 5.328125 -11.71875 
Q 7.859375 -12.5 10.296875 -12.5 
Q 15.1875 -12.5 17.0625 -9.8125 
Q 18.953125 -7.125 21.296875 -0.09375 
L 1.609375 51.8125 
L 11.078125 51.8125 
L 23.296875 17.875 
Q 24.359375 14.75 25.59375 9.8125 
L 25.78125 9.8125 
Q 27 15.484375 28.90625 20.609375 
L 40.28125 51.8125 
z
" id="ArialUnicodeMS-121"/>
     </defs>
     <g transform="translate(35.339062 157.169062)rotate(-90)scale(0.1 -0.1)">
      <use xlink:href="#ArialUnicodeMS-121"/>
      <use x="50" xlink:href="#ArialUnicodeMS-52629"/>
      <use x="150" xlink:href="#ArialUnicodeMS-32"/>
      <use x="177.783203" xlink:href="#ArialUnicodeMS-44050"/>
     </g>
    </g>
   </g>
   <g id="line2d_18">
    <path clip-path="url(#p5d8cf9db81)" d="M 69.218182 242.116364 
L 145.309091 213.877403 
L 221.4 185.638442 
L 297.490909 157.399481 
L 373.581818 129.160519 
" style="fill:none;stroke:#ff0000;stroke-dasharray:5.55,2.4;stroke-dashoffset:0;stroke-width:1.5;"/>
    <defs>
     <path d="M 3 0 
L -3 -3 
L -3 3 
z
" id="m6cb3ce977d" style="stroke:#ff0000;stroke-linejoin:miter;"/>
    </defs>
    <g clip-path="url(#p5d8cf9db81)">
     <use style="fill:#ff0000;stroke:#ff0000;stroke-linejoin:miter;" x="69.218182" xlink:href="#m6cb3ce977d" y="242.116364"/>
     <use style="fill:#ff0000;stroke:#ff0000;stroke-linejoin:miter;" x="145.309091" xlink:href="#m6cb3ce977d" y="213.877403"/>
     <use style="fill:#ff0000;stroke:#ff0000;stroke-linejoin:miter;" x="221.4" xlink:href="#m6cb3ce977d" y="185.638442"/>
     <use style="fill:#ff0000;stroke:#ff0000;stroke-linejoin:miter;" x="297.490909" xlink:href="#m6cb3ce977d" y="157.399481"/>
     <use style="fill:#ff0000;stroke:#ff0000;stroke-linejoin:miter;" x="373.581818" xlink:href="#m6cb3ce977d" y="129.160519"/>
    </g>
   </g>
   <g id="line2d_19">
    <path clip-path="url(#p5d8cf9db81)" d="M 69.218182 213.877403 
L 145.309091 185.638442 
L 221.4 157.399481 
L 297.490909 129.160519 
L 373.581818 100.921558 
" style="fill:none;stroke:#008000;stroke-linecap:square;stroke-width:1.5;"/>
    <defs>
     <path d="M -3 3 
L 3 3 
L 3 -3 
L -3 -3 
z
" id="mae6f981b62" style="stroke:#008000;stroke-linejoin:miter;"/>
    </defs>
    <g clip-path="url(#p5d8cf9db81)">
     <use style="fill:#008000;stroke:#008000;stroke-linejoin:miter;" x="69.218182" xlink:href="#mae6f981b62" y="213.877403"/>
     <use style="fill:#008000;stroke:#008000;stroke-linejoin:miter;" x="145.309091" xlink:href="#mae6f981b62" y="185.638442"/>
     <use style="fill:#008000;stroke:#008000;stroke-linejoin:miter;" x="221.4" xlink:href="#mae6f981b62" y="157.399481"/>
     <use style="fill:#008000;stroke:#008000;stroke-linejoin:miter;" x="297.490909" xlink:href="#mae6f981b62" y="129.160519"/>
     <use style="fill:#008000;stroke:#008000;stroke-linejoin:miter;" x="373.581818" xlink:href="#mae6f981b62" y="100.921558"/>
    </g>
   </g>
   <g id="line2d_20">
    <path clip-path="url(#p5d8cf9db81)" d="M 69.218182 185.638442 
L 145.309091 157.399481 
L 221.4 129.160519 
L 297.490909 100.921558 
L 373.581818 72.682597 
" style="fill:none;stroke:#0000ff;stroke-dasharray:1.5,2.475;stroke-dashoffset:0;stroke-width:1.5;"/>
    <defs>
     <path d="M -0 4.242641 
L 2.545584 0 
L 0 -4.242641 
L -2.545584 -0 
z
" id="m996e034159" style="stroke:#0000ff;stroke-linejoin:miter;"/>
    </defs>
    <g clip-path="url(#p5d8cf9db81)">
     <use style="fill:#0000ff;stroke:#0000ff;stroke-linejoin:miter;" x="69.218182" xlink:href="#m996e034159" y="185.638442"/>
     <use style="fill:#0000ff;stroke:#0000ff;stroke-linejoin:miter;" x="145.309091" xlink:href="#m996e034159" y="157.399481"/>
     <use style="fill:#0000ff;stroke:#0000ff;stroke-linejoin:miter;" x="221.4" xlink:href="#m996e034159" y="129.160519"/>
     <use style="fill:#0000ff;stroke:#0000ff;stroke-linejoin:miter;" x="297.490909" xlink:href="#m996e034159" y="100.921558"/>
     <use style="fill:#0000ff;stroke:#0000ff;stroke-linejoin:miter;" x="373.581818" xlink:href="#m996e034159" y="72.682597"/>
    </g>
   </g>
   <g id="line2d_21">
    <path clip-path="url(#p5d8cf9db81)" d="M 69.218182 157.399481 
L 145.309091 129.160519 
L 221.4 100.921558 
L 297.490909 72.682597 
L 373.581818 44.443636 
" style="fill:none;stroke:#00bfbf;stroke-dasharray:9.6,2.4,1.5,2.4;stroke-dashoffset:0;stroke-width:1.5;"/>
    <defs>
     <path d="M -1.5 3 
L 0 1.5 
L 1.5 3 
L 3 1.5 
L 1.5 0 
L 3 -1.5 
L 1.5 -3 
L 0 -1.5 
L -1.5 -3 
L -3 -1.5 
L -1.5 0 
L -3 1.5 
z
" id="m531e308bce" style="stroke:#00bfbf;stroke-linejoin:miter;"/>
    </defs>
    <g clip-path="url(#p5d8cf9db81)">
     <use style="fill:#00bfbf;stroke:#00bfbf;stroke-linejoin:miter;" x="69.218182" xlink:href="#m531e308bce" y="157.399481"/>
     <use style="fill:#00bfbf;stroke:#00bfbf;stroke-linejoin:miter;" x="145.309091" xlink:href="#m531e308bce" y="129.160519"/>
     <use style="fill:#00bfbf;stroke:#00bfbf;stroke-linejoin:miter;" x="221.4" xlink:href="#m531e308bce" y="100.921558"/>
     <use style="fill:#00bfbf;stroke:#00bfbf;stroke-linejoin:miter;" x="297.490909" xlink:href="#m531e308bce" y="72.682597"/>
     <use style="fill:#00bfbf;stroke:#00bfbf;stroke-linejoin:miter;" x="373.581818" xlink:href="#m531e308bce" y="44.443636"/>
    </g>
   </g>
   <g id="patch_3">
    <path d="M 54 252 
L 54 34.56 
" style="fill:none;stroke:#000000;stroke-linecap:square;stroke-linejoin:miter;stroke-width:0.8;"/>
   </g>
   <g id="patch_4">
    <path d="M 388.8 252 
L 388.8 34.56 
" style="fill:none;stroke:#000000;stroke-linecap:square;stroke-linejoin:miter;stroke-width:0.8;"/>
   </g>
   <g id="patch_5">
    <path d="M 54 252 
L 388.8 252 
" style="fill:none;stroke:#000000;stroke-linecap:square;stroke-linejoin:miter;stroke-width:0.8;"/>
   </g>
   <g id="patch_6">
    <path d="M 54 34.56 
L 388.8 34.56 
" style="fill:none;stroke:#000000;stroke-linecap:square;stroke-linejoin:miter;stroke-width:0.8;"/>
   </g>
   <g id="text_20">
    <!-- 문자열 출력 -->
    <defs>
     <path d="M 82.328125 48.484375 
L 17.671875 48.484375 
L 17.671875 79.984375 
L 82.328125 79.984375 
z
M 25.296875 72.015625 
L 25.296875 56.5 
L 74.703125 56.5 
L 74.703125 72.015625 
z
M 92.09375 32.71875 
L 53.8125 32.71875 
L 53.8125 16.109375 
L 46.1875 16.109375 
L 46.1875 32.71875 
L 7.90625 32.71875 
L 7.90625 40.375 
L 92.09375 40.375 
z
M 82.171875 -4.59375 
L 18.796875 -4.59375 
L 18.796875 25.875 
L 26.609375 25.875 
L 26.609375 3.328125 
L 82.171875 3.328125 
z
" id="ArialUnicodeMS-47928"/>
     <path d="M 93.609375 34.71875 
L 77.6875 34.71875 
L 77.6875 -6.890625 
L 70.125 -6.890625 
L 70.125 84.1875 
L 77.6875 84.1875 
L 77.6875 42.390625 
L 93.609375 42.390625 
z
M 63.8125 14.015625 
Q 59.46875 12.0625 56.78125 8.109375 
Q 51.375 12.25 44.5625 21.625 
Q 37.75 31 34.515625 37.890625 
Q 27.390625 19.921875 14.015625 7.171875 
Q 10.9375 11.1875 7.328125 13.09375 
Q 18.75 22.40625 25.171875 36.90625 
Q 31.59375 51.421875 31.59375 64.015625 
L 11.375 64.015625 
L 11.375 71.578125 
L 60.296875 71.578125 
L 60.296875 64.015625 
L 39.796875 64.015625 
Q 39.546875 60.6875 38.765625 54.6875 
L 37.984375 49.21875 
Q 37.984375 46.625 45.890625 34.046875 
Q 53.8125 21.484375 63.8125 14.015625 
z
" id="ArialUnicodeMS-51088"/>
     <path d="M 90.828125 31 
L 83.203125 31 
L 83.203125 46.09375 
L 63.1875 46.09375 
L 63.1875 53.71875 
L 83.203125 53.71875 
L 83.203125 61.1875 
L 63.1875 61.1875 
L 63.1875 68.890625 
L 83.203125 68.890625 
L 83.203125 84.1875 
L 90.828125 84.1875 
z
M 54.78125 56.59375 
Q 54.78125 47.40625 48.453125 41.15625 
Q 42.140625 34.90625 31.78125 34.90625 
Q 21.1875 34.90625 14.984375 40.953125 
Q 8.796875 47.015625 8.796875 56.6875 
Q 8.796875 65.625 15.28125 71.84375 
Q 21.78125 78.078125 31.78125 78.078125 
Q 41.9375 78.078125 48.359375 71.84375 
Q 54.78125 65.625 54.78125 56.59375 
z
M 47.3125 56.59375 
Q 47.3125 62.359375 42.765625 66.484375 
Q 38.234375 70.609375 31.890625 70.609375 
Q 25.53125 70.609375 21.015625 66.484375 
Q 16.5 62.359375 16.5 56.59375 
Q 16.5 50.875 21.015625 46.71875 
Q 25.53125 42.578125 31.890625 42.578125 
Q 38.234375 42.578125 42.765625 46.71875 
Q 47.3125 50.875 47.3125 56.59375 
z
M 90.1875 28.21875 
L 90.1875 8.203125 
L 33.796875 8.203125 
L 33.796875 1.703125 
L 91.703125 1.703125 
L 91.703125 -6.203125 
L 26.125 -6.203125 
L 26.125 15.828125 
L 82.421875 15.828125 
L 82.421875 20.515625 
L 25.875 20.515625 
L 25.875 28.21875 
z
" id="ArialUnicodeMS-50676"/>
     <path d="M 66.3125 75.484375 
L 34.28125 75.484375 
L 34.28125 82.171875 
L 66.3125 82.171875 
z
M 86.078125 53.609375 
Q 82.46875 50.984375 81 46.1875 
Q 63.328125 50.4375 50.09375 62.40625 
Q 37.84375 50.875 16.609375 46.296875 
Q 15.1875 50.25 12.40625 53.609375 
Q 31 56.453125 41.609375 65.28125 
L 15.28125 65.28125 
L 15.28125 71.78125 
L 85.203125 71.78125 
L 85.203125 65.28125 
L 58.6875 65.28125 
Q 67.4375 57.5625 86.078125 53.609375 
z
M 92.09375 36.71875 
L 53.8125 36.71875 
L 53.8125 30.171875 
L 46.1875 30.171875 
L 46.1875 36.71875 
L 7.90625 36.71875 
L 7.90625 44.390625 
L 92.09375 44.390625 
z
M 80.71875 28.21875 
L 80.71875 8.203125 
L 26.3125 8.203125 
L 26.3125 1.703125 
L 82.171875 1.703125 
L 82.171875 -6.203125 
L 18.609375 -6.203125 
L 18.609375 15.828125 
L 72.90625 15.828125 
L 72.90625 20.515625 
L 18.40625 20.515625 
L 18.40625 28.21875 
z
" id="ArialUnicodeMS-52636"/>
     <path d="M 90.828125 31.109375 
L 83.203125 31.109375 
L 83.203125 47.609375 
L 63.71875 47.609375 
L 63.71875 55.328125 
L 83.203125 55.328125 
L 83.203125 62.703125 
L 63.71875 62.703125 
L 63.71875 70.40625 
L 83.203125 70.40625 
L 83.203125 84.1875 
L 90.828125 84.1875 
z
M 10.40625 33.40625 
L 10.40625 60.59375 
L 42.671875 60.59375 
L 42.671875 71 
L 10.296875 71 
L 10.296875 79 
L 50.59375 79 
L 50.59375 52.78125 
L 18.3125 52.78125 
L 18.3125 41.609375 
Q 38.140625 41.609375 59.1875 45.3125 
L 59.078125 37.109375 
Q 39.796875 33.9375 10.40625 33.40625 
z
M 83.296875 -6.109375 
L 83.296875 18.609375 
L 25.484375 18.609375 
L 25.484375 26.421875 
L 90.71875 26.421875 
L 90.71875 -6.109375 
z
" id="ArialUnicodeMS-47141"/>
    </defs>
    <g transform="translate(69.218182 129.160519)scale(0.1 -0.1)">
     <use xlink:href="#ArialUnicodeMS-47928"/>
     <use x="100" xlink:href="#ArialUnicodeMS-51088"/>
     <use x="200" xlink:href="#ArialUnicodeMS-50676"/>
     <use x="300" xlink:href="#ArialUnicodeMS-32"/>
     <use x="327.783203" xlink:href="#ArialUnicodeMS-52636"/>
     <use x="427.783203" xlink:href="#ArialUnicodeMS-47141"/>
    </g>
   </g>
   <g id="text_21">
    <!-- 그래프 형식 지정 예제 -->
    <defs>
     <path d="M 94.28125 6.203125 
L 5.71875 6.203125 
L 5.71875 14.109375 
L 66.609375 14.109375 
Q 73.6875 46.6875 74.21875 60.5 
L 14.984375 60.5 
L 14.984375 68.5 
L 83.6875 68.5 
Q 82.515625 50.390625 75 14.109375 
L 94.28125 14.109375 
z
" id="ArialUnicodeMS-44536"/>
     <path d="M 90.71875 -6.890625 
L 83.109375 -6.890625 
L 83.109375 35.6875 
L 70.703125 35.6875 
L 70.703125 -1.421875 
L 63.09375 -1.421875 
L 63.09375 79.203125 
L 70.703125 79.203125 
L 70.703125 43.40625 
L 83.109375 43.40625 
L 83.109375 84.1875 
L 90.71875 84.1875 
z
M 11.921875 3.421875 
L 11.921875 46.578125 
L 43.21875 46.578125 
L 43.21875 66.015625 
L 11.8125 66.015625 
L 11.8125 74.03125 
L 51.125 74.03125 
L 51.125 38.8125 
L 19.828125 38.8125 
L 19.828125 11.625 
Q 36.53125 12.015625 57.328125 17.28125 
L 57.328125 9.71875 
Q 37.5 4.34375 11.921875 3.421875 
z
" id="ArialUnicodeMS-47000"/>
     <path d="M 80.71875 64.40625 
L 19.28125 64.40625 
L 19.28125 72.40625 
L 80.71875 72.40625 
z
M 82.171875 27.984375 
L 17.828125 27.984375 
L 17.828125 35.890625 
L 35.59375 35.890625 
L 31.390625 61.1875 
L 39.984375 61.1875 
L 43.890625 35.890625 
L 56.203125 35.890625 
L 60.890625 61.28125 
L 69.484375 61.28125 
L 64.40625 35.890625 
L 82.171875 35.890625 
z
M 94.28125 5.171875 
L 5.71875 5.171875 
L 5.71875 13.09375 
L 94.28125 13.09375 
z
" id="ArialUnicodeMS-54532"/>
     <path d="M 90.71875 31 
L 83.109375 31 
L 83.109375 44.09375 
L 63.09375 44.09375 
L 63.09375 51.703125 
L 83.109375 51.703125 
L 83.109375 57.71875 
L 63.09375 57.71875 
L 63.09375 65.375 
L 83.109375 65.375 
L 83.109375 84.1875 
L 90.71875 84.1875 
z
M 45.515625 72.90625 
L 21.6875 72.90625 
L 21.6875 80.171875 
L 45.515625 80.171875 
z
M 59.421875 62.40625 
L 7.515625 62.40625 
L 7.515625 69.28125 
L 59.421875 69.28125 
z
M 54.984375 45.90625 
Q 54.984375 40.4375 48.6875 36.578125 
Q 42.390625 32.71875 33.5 32.71875 
Q 24.5625 32.71875 18.234375 36.578125 
Q 11.921875 40.4375 11.921875 45.90625 
Q 11.921875 51.46875 18.171875 55.265625 
Q 24.421875 59.078125 33.40625 59.078125 
Q 42.921875 59.078125 48.953125 55.34375 
Q 54.984375 51.609375 54.984375 45.90625 
z
M 46.1875 45.90625 
Q 46.1875 48.390625 42.71875 50 
Q 39.265625 51.609375 33.40625 51.609375 
Q 27.59375 51.609375 24.140625 50.015625 
Q 20.703125 48.4375 20.703125 46 
Q 20.703125 43.265625 24.21875 41.671875 
Q 27.734375 40.09375 33.40625 40.09375 
Q 39.265625 40.09375 42.71875 41.71875 
Q 46.1875 43.359375 46.1875 45.90625 
z
M 91.109375 10.984375 
Q 91.109375 2.546875 81.703125 -2.109375 
Q 72.3125 -6.78125 57.421875 -6.78125 
Q 41.9375 -6.78125 32.609375 -2.09375 
Q 23.296875 2.59375 23.296875 11.078125 
Q 23.296875 19.28125 33.296875 24.234375 
Q 43.3125 29.203125 57.421875 29.203125 
Q 72.171875 29.203125 81.640625 24.390625 
Q 91.109375 19.578125 91.109375 10.984375 
z
M 82.8125 10.984375 
Q 82.8125 15.234375 75.40625 18.265625 
Q 68.015625 21.296875 57.515625 21.296875 
Q 47.171875 21.296875 39.375 18.578125 
Q 31.59375 15.875 31.59375 11.078125 
Q 31.59375 6.9375 39.75 3.859375 
Q 47.90625 0.78125 57.421875 0.78125 
Q 67.828125 0.78125 75.3125 3.8125 
Q 82.8125 6.84375 82.8125 10.984375 
z
" id="ArialUnicodeMS-54805"/>
     <path d="M 83.296875 31.109375 
L 83.296875 84.1875 
L 90.71875 84.1875 
L 90.71875 31.109375 
z
M 45.3125 79.59375 
Q 44 77.484375 43.609375 71.96875 
L 43.21875 67.1875 
Q 43.21875 63.765625 49.96875 55.1875 
Q 56.734375 46.625 68.40625 40.1875 
Q 64.890625 37.9375 62.40625 33.5 
Q 47.859375 42.96875 38.921875 56.296875 
Q 30.375 41.453125 16.5 32.171875 
Q 14.546875 35.640625 10.59375 38.484375 
Q 21.1875 44.1875 28.6875 54.296875 
Q 36.1875 64.40625 35.984375 80.609375 
z
M 83.296875 -6.109375 
L 83.296875 18.609375 
L 25.484375 18.609375 
L 25.484375 26.421875 
L 90.71875 26.421875 
L 90.71875 -6.109375 
z
" id="ArialUnicodeMS-49885"/>
     <path d="M 90.578125 31.109375 
L 83.015625 31.109375 
L 83.015625 53.609375 
L 63.1875 53.609375 
L 63.1875 61.375 
L 83.015625 61.375 
L 83.015625 84.078125 
L 90.578125 84.078125 
z
M 58.5 38.375 
Q 53.609375 35.296875 51.515625 32.171875 
Q 37.015625 43.609375 32.515625 52.78125 
Q 26.265625 41.453125 14.984375 31.203125 
Q 10.890625 35.546875 8.296875 37.3125 
Q 27.046875 51.8125 28.8125 69.28125 
L 11.078125 69.28125 
L 11.078125 77.390625 
L 56.78125 77.390625 
L 56.78125 69.28125 
L 37.40625 69.28125 
L 36.625 63.375 
Q 36.625 60.75 42.703125 52.609375 
Q 48.78125 44.484375 58.5 38.375 
z
M 91.109375 10.984375 
Q 91.109375 2.546875 81.703125 -2.109375 
Q 72.3125 -6.78125 57.421875 -6.78125 
Q 41.9375 -6.78125 32.609375 -2.09375 
Q 23.296875 2.59375 23.296875 11.078125 
Q 23.296875 19.28125 33.296875 24.234375 
Q 43.3125 29.203125 57.421875 29.203125 
Q 72.171875 29.203125 81.640625 24.390625 
Q 91.109375 19.578125 91.109375 10.984375 
z
M 82.8125 10.984375 
Q 82.8125 15.234375 75.40625 18.265625 
Q 68.015625 21.296875 57.515625 21.296875 
Q 47.171875 21.296875 39.375 18.578125 
Q 31.59375 15.875 31.59375 11.078125 
Q 31.59375 6.9375 39.75 3.859375 
Q 47.90625 0.78125 57.421875 0.78125 
Q 67.828125 0.78125 75.3125 3.8125 
Q 82.8125 6.84375 82.8125 10.984375 
z
" id="ArialUnicodeMS-51221"/>
     <path d="M 83.109375 -6.78125 
L 83.109375 84.28125 
L 90.71875 84.28125 
L 90.71875 -6.78125 
z
M 73.6875 -0.296875 
L 66.015625 -0.296875 
L 66.015625 27.6875 
L 52.09375 27.6875 
L 52.09375 35.40625 
L 66.015625 35.40625 
L 66.015625 46.6875 
L 52.09375 46.6875 
L 52.09375 54.390625 
L 66.015625 54.390625 
L 66.015625 82.625 
L 73.6875 82.625 
z
M 48.78125 41.609375 
Q 48.78125 29 42.796875 20.09375 
Q 36.8125 11.1875 28.71875 11.1875 
Q 20.265625 11.1875 14.375 20 
Q 8.5 28.8125 8.5 41.609375 
Q 8.5 55.078125 14.234375 63.59375 
Q 19.96875 72.125 28.609375 72.125 
Q 36.765625 72.125 42.765625 63.1875 
Q 48.78125 54.25 48.78125 41.609375 
z
M 41.015625 41.609375 
Q 41.015625 50.984375 37.40625 57.34375 
Q 33.796875 63.71875 28.609375 63.71875 
Q 23.484375 63.71875 19.890625 57.34375 
Q 16.3125 50.984375 16.3125 41.609375 
Q 16.3125 32.234375 19.890625 25.859375 
Q 23.484375 19.484375 28.609375 19.484375 
Q 33.796875 19.484375 37.40625 25.859375 
Q 41.015625 32.234375 41.015625 41.609375 
z
" id="ArialUnicodeMS-50696"/>
     <path d="M 83.109375 -6.890625 
L 83.109375 84.1875 
L 90.71875 84.1875 
L 90.71875 -6.890625 
z
M 66.5 1.125 
L 66.5 38.625 
L 52.59375 38.625 
L 52.59375 46.296875 
L 66.5 46.296875 
L 66.5 82.515625 
L 74.21875 82.515625 
L 74.21875 1.125 
z
M 60.5 14.59375 
Q 56.15625 12.359375 53.21875 8.109375 
Q 47.953125 12.25 41.359375 21.578125 
Q 34.765625 30.90625 31.5 37.890625 
Q 24.65625 19.921875 11.8125 7.078125 
Q 8.25 11.671875 4.984375 13.625 
Q 15.96875 22.859375 22.390625 37.0625 
Q 28.8125 51.265625 28.8125 64.015625 
L 9.28125 64.015625 
L 9.28125 71.578125 
L 56.59375 71.578125 
L 56.59375 64.015625 
L 36.8125 64.015625 
L 35.015625 49.125 
Q 35.015625 46.4375 42.765625 34.328125 
Q 50.53125 22.21875 60.5 14.59375 
z
" id="ArialUnicodeMS-51228"/>
    </defs>
    <g transform="translate(162.399375 28.56)scale(0.12 -0.12)">
     <use xlink:href="#ArialUnicodeMS-44536"/>
     <use x="100" xlink:href="#ArialUnicodeMS-47000"/>
     <use x="200" xlink:href="#ArialUnicodeMS-54532"/>
     <use x="300" xlink:href="#ArialUnicodeMS-32"/>
     <use x="327.783203" xlink:href="#ArialUnicodeMS-54805"/>
     <use x="427.783203" xlink:href="#ArialUnicodeMS-49885"/>
     <use x="527.783203" xlink:href="#ArialUnicodeMS-32"/>
     <use x="555.566406" xlink:href="#ArialUnicodeMS-51648"/>
     <use x="655.566406" xlink:href="#ArialUnicodeMS-51221"/>
     <use x="755.566406" xlink:href="#ArialUnicodeMS-32"/>
     <use x="783.349609" xlink:href="#ArialUnicodeMS-50696"/>
     <use x="883.349609" xlink:href="#ArialUnicodeMS-51228"/>
    </g>
   </g>
   <g id="legend_1">
    <g id="patch_7">
     <path d="M 324.778125 247 
L 381.8 247 
Q 383.8 247 383.8 245 
L 383.8 189.4 
Q 383.8 187.4 381.8 187.4 
L 324.778125 187.4 
Q 322.778125 187.4 322.778125 189.4 
L 322.778125 245 
Q 322.778125 247 324.778125 247 
z
" style="fill:#ffffff;opacity:0.8;stroke:#cccccc;stroke-linejoin:miter;"/>
    </g>
    <g id="line2d_22">
     <path d="M 326.778125 195.057813 
L 346.778125 195.057813 
" style="fill:none;stroke:#ff0000;stroke-dasharray:5.55,2.4;stroke-dashoffset:0;stroke-width:1.5;"/>
    </g>
    <g id="line2d_23">
     <g>
      <use style="fill:#ff0000;stroke:#ff0000;stroke-linejoin:miter;" x="336.778125" xlink:href="#m6cb3ce977d" y="195.057813"/>
     </g>
    </g>
    <g id="text_22">
     <!-- data1 -->
     <defs>
      <path d="M 48.578125 0 
L 40.375 0 
L 40.375 6.59375 
L 40.1875 6.59375 
Q 35.453125 -1.21875 25.875 -1.21875 
Q 16.359375 -1.21875 9.984375 6.328125 
Q 3.609375 13.875 3.609375 25.875 
Q 3.609375 38.421875 9.609375 45.703125 
Q 15.625 52.984375 25.484375 52.984375 
Q 34.765625 52.984375 39.59375 45.90625 
L 39.796875 45.90625 
L 39.796875 71.578125 
L 48.578125 71.578125 
z
M 26.8125 6 
Q 32.5625 6 36.5625 10.734375 
Q 40.578125 15.484375 40.578125 25.09375 
Q 40.578125 34.578125 36.90625 40.1875 
Q 33.25 45.796875 26.421875 45.796875 
Q 19.578125 45.796875 16.078125 40.296875 
Q 12.59375 34.8125 12.59375 25.875 
Q 12.59375 19.4375 14.46875 14.96875 
Q 16.359375 10.5 19.71875 8.25 
Q 23.09375 6 26.8125 6 
z
" id="ArialUnicodeMS-100"/>
      <path d="M 51.609375 0 
L 42.390625 0 
Q 41.109375 2.4375 40.578125 6.390625 
Q 31.734375 -1.21875 21.484375 -1.21875 
Q 13.28125 -1.21875 8.546875 2.875 
Q 3.8125 6.984375 3.8125 13.71875 
Q 3.8125 20.171875 8.375 24.34375 
Q 12.9375 28.515625 24.21875 29.890625 
L 32.421875 31.109375 
Q 37.015625 31.84375 39.984375 32.90625 
Q 39.984375 36.859375 39.734375 38.5 
Q 39.5 40.140625 38.296875 41.890625 
Q 37.109375 43.65625 34.46875 44.71875 
Q 31.84375 45.796875 27.390625 45.796875 
Q 21.734375 45.796875 18.4375 43.703125 
Q 15.140625 41.609375 13.921875 35.890625 
L 5.328125 37.015625 
Q 6.734375 44.96875 12.59375 48.96875 
Q 18.453125 52.984375 28.71875 52.984375 
Q 38.03125 52.984375 42.40625 50.21875 
Q 46.78125 47.46875 47.78125 43.5625 
Q 48.78125 39.65625 48.78125 33.5 
L 48.78125 21.6875 
Q 48.78125 10.890625 49.1875 7.203125 
Q 49.609375 3.515625 51.609375 0 
z
M 39.984375 22.796875 
L 39.984375 25.984375 
Q 33.109375 23.6875 23.140625 22.34375 
Q 13.1875 21 13.1875 13.921875 
Q 13.1875 10.359375 15.875 8.03125 
Q 18.5625 5.71875 23.578125 5.71875 
Q 30.078125 5.71875 35.03125 9.59375 
Q 39.984375 13.484375 39.984375 22.796875 
z
" id="ArialUnicodeMS-97"/>
      <path d="M 26.90625 0.09375 
Q 23 -0.6875 20.3125 -0.6875 
Q 14.546875 -0.6875 11.90625 1.34375 
Q 9.28125 3.375 8.6875 6.5 
Q 8.109375 9.625 8.109375 15.1875 
L 8.109375 45.015625 
L 1.703125 45.015625 
L 1.703125 51.8125 
L 8.109375 51.8125 
L 8.109375 64.703125 
L 16.890625 70.015625 
L 16.890625 51.8125 
L 25.6875 51.8125 
L 25.6875 45.015625 
L 16.890625 45.015625 
L 16.890625 14.703125 
Q 16.890625 10.796875 17.6875 9.15625 
Q 18.5 7.515625 21.78125 7.515625 
Q 23.6875 7.515625 25.6875 7.90625 
z
" id="ArialUnicodeMS-116"/>
     </defs>
     <g transform="translate(354.778125 198.557813)scale(0.1 -0.1)">
      <use xlink:href="#ArialUnicodeMS-100"/>
      <use x="55.615234" xlink:href="#ArialUnicodeMS-97"/>
      <use x="111.230469" xlink:href="#ArialUnicodeMS-116"/>
      <use x="139.013672" xlink:href="#ArialUnicodeMS-97"/>
      <use x="194.628906" xlink:href="#ArialUnicodeMS-49"/>
     </g>
    </g>
    <g id="line2d_24">
     <path d="M 326.778125 209.207812 
L 346.778125 209.207812 
" style="fill:none;stroke:#008000;stroke-linecap:square;stroke-width:1.5;"/>
    </g>
    <g id="line2d_25">
     <g>
      <use style="fill:#008000;stroke:#008000;stroke-linejoin:miter;" x="336.778125" xlink:href="#mae6f981b62" y="209.207812"/>
     </g>
    </g>
    <g id="text_23">
     <!-- data2 -->
     <g transform="translate(354.778125 212.707812)scale(0.1 -0.1)">
      <use xlink:href="#ArialUnicodeMS-100"/>
      <use x="55.615234" xlink:href="#ArialUnicodeMS-97"/>
      <use x="111.230469" xlink:href="#ArialUnicodeMS-116"/>
      <use x="139.013672" xlink:href="#ArialUnicodeMS-97"/>
      <use x="194.628906" xlink:href="#ArialUnicodeMS-50"/>
     </g>
    </g>
    <g id="line2d_26">
     <path d="M 326.778125 223.357812 
L 346.778125 223.357812 
" style="fill:none;stroke:#0000ff;stroke-dasharray:1.5,2.475;stroke-dashoffset:0;stroke-width:1.5;"/>
    </g>
    <g id="line2d_27">
     <g>
      <use style="fill:#0000ff;stroke:#0000ff;stroke-linejoin:miter;" x="336.778125" xlink:href="#m996e034159" y="223.357812"/>
     </g>
    </g>
    <g id="text_24">
     <!-- data3 -->
     <g transform="translate(354.778125 226.857812)scale(0.1 -0.1)">
      <use xlink:href="#ArialUnicodeMS-100"/>
      <use x="55.615234" xlink:href="#ArialUnicodeMS-97"/>
      <use x="111.230469" xlink:href="#ArialUnicodeMS-116"/>
      <use x="139.013672" xlink:href="#ArialUnicodeMS-97"/>
      <use x="194.628906" xlink:href="#ArialUnicodeMS-51"/>
     </g>
    </g>
    <g id="line2d_28">
     <path d="M 326.778125 237.507812 
L 346.778125 237.507812 
" style="fill:none;stroke:#00bfbf;stroke-dasharray:9.6,2.4,1.5,2.4;stroke-dashoffset:0;stroke-width:1.5;"/>
    </g>
    <g id="line2d_29">
     <g>
      <use style="fill:#00bfbf;stroke:#00bfbf;stroke-linejoin:miter;" x="336.778125" xlink:href="#m531e308bce" y="237.507812"/>
     </g>
    </g>
    <g id="text_25">
     <!-- data4 -->
     <g transform="translate(354.778125 241.007812)scale(0.1 -0.1)">
      <use xlink:href="#ArialUnicodeMS-100"/>
      <use x="55.615234" xlink:href="#ArialUnicodeMS-97"/>
      <use x="111.230469" xlink:href="#ArialUnicodeMS-116"/>
      <use x="139.013672" xlink:href="#ArialUnicodeMS-97"/>
      <use x="194.628906" xlink:href="#ArialUnicodeMS-52"/>
     </g>
    </g>
   </g>
  </g>
 </g>
 <defs>
  <clipPath id="p5d8cf9db81">
   <rect height="217.44" width="334.8" x="54" y="34.56"/>
  </clipPath>
 </defs>
</svg>
